HIERARCHY
ROOT Hips
{
	OFFSET	0.00	0.00	0.00
	CHANNELS 6 Xposition Yposition Zposition Zrotation Xrotation Yrotation
	JOINT Spine
	{
		OFFSET	 0.00	0.01	 0.00
		CHANNELS 3 Zrotation Xrotation Yrotation
		JOINT Spine1
		{
			OFFSET	 0.00	 2.45913012437421	 0.00
			CHANNELS 3 Zrotation Xrotation Yrotation
            JOINT Neck
            {
                OFFSET	 0.00	 2.48462964506057	 0.00
                CHANNELS 3 Zrotation Xrotation Yrotation
                JOINT Head
                {
                    OFFSET	 0.00	 0.927524780924562	 0.00
                    CHANNELS 3 Zrotation Xrotation Yrotation
                    End Site 
                    {
                        OFFSET	 0.00	 1.14999962169752	 0.00
                    }
                }
            }
			JOINT LeftShoulder
			{
				OFFSET	 0.00	 2.48462964506057	 0.00
				CHANNELS 3 Zrotation Xrotation Yrotation
				JOINT LeftUpArm
				{
					OFFSET	 0.00	 1.24881979654096	 0.00
					CHANNELS 3 Zrotation Xrotation Yrotation
					JOINT LeftForeArm
					{
						OFFSET	 0.00	2.59758046908119	 0.00
						CHANNELS 3 Zrotation Xrotation Yrotation
						JOINT LeftHand
						{
							OFFSET	 0.00	2.45542024364365	 0.00
							CHANNELS 3 Zrotation Xrotation Yrotation
							JOINT LeftHandThumb 
							{
								OFFSET	 0.00	0.00	 0.00
								CHANNELS 3 Zrotation Xrotation Yrotation
								End Site
								{
									OFFSET	 0.00	0.00	1.00000003353624
								}
							}
							JOINT L_Wrist_End 
							{
								OFFSET	 0.00	0.99999967115358	 0.00
								CHANNELS 3 Zrotation Xrotation Yrotation
								End Site 
								{
									OFFSET	 0.00	 0.00	 0.00
								}
							}
						}
					}
				}
			}
			JOINT RightShoulder
			{
				OFFSET	 0.00	 2.48462964506057	 0.00
				CHANNELS 3 Zrotation Xrotation Yrotation
				JOINT RightUpArm
				{
					OFFSET	 0.00	 1.24881979654096	 0.00
					CHANNELS 3 Zrotation Xrotation Yrotation
					JOINT RightForeArm
					{
						OFFSET	 0.00	2.59758046908119	 0.00
						CHANNELS 3 Zrotation Xrotation Yrotation
						JOINT RightHand
						{
							OFFSET	 0.00	2.45542024364365	 0.00
							CHANNELS 3 Zrotation Xrotation Yrotation
							JOINT RightHandThumb 
							{
								OFFSET	 0.00	0.00	 0.00
								CHANNELS 3 Zrotation Xrotation Yrotation
								End Site
								{
									OFFSET	 0.00	0.00	1.00000003353624
								}
							}
							JOINT R_Wrist_End 
							{
								OFFSET	 0.00	0.99999967115358	 0.00
								CHANNELS 3 Zrotation Xrotation Yrotation
								End Site 
								{
									OFFSET	 0.00	 0.00	 0.00
								}
							}
						}
					}
				}
			}
		}
	}
	JOINT LeftUpLeg
	{
		OFFSET	 1.2719394002717	 0.00	 0.00
		CHANNELS 3 Zrotation Xrotation Yrotation
		JOINT LeftLowLeg
		{
			OFFSET	 0.00	-4.3429100912261	 0.00
			CHANNELS 3 Zrotation Xrotation Yrotation
			JOINT LeftFoot
			{
				OFFSET	 0.00	-4.48767017425826	 0.00
				CHANNELS 3 Zrotation Xrotation Yrotation
				JOINT LeftToeBase
                {
                    OFFSET	 0.00	0.00	 1.51507020887566
                    CHANNELS 3 Zrotation Xrotation Yrotation
                    End Site 
                    {
                        OFFSET	 0.00	0.00	 0.75000010571191
                    }
                }
			}
		}
	}
	JOINT RightUpLeg
	{
		OFFSET	 -1.2719393604653	 0.00	 0.00
		CHANNELS 3 Zrotation Xrotation Yrotation
		JOINT RightLowLeg
		{
			OFFSET	 0.00	-4.3429100912261	 0.00
			CHANNELS 3 Zrotation Xrotation Yrotation
			JOINT RightFoot
			{
				OFFSET	 0.00	-4.48767017425826	 0.00
				CHANNELS 3 Zrotation Xrotation Yrotation
				JOINT RightToeBase
                {
                    OFFSET	 0.00	0.00	 1.51507020887566
                    CHANNELS 3 Zrotation Xrotation Yrotation
                    End Site 
                    {
                        OFFSET	 0.00	0.00	 0.749999965609858
                    }
                }   
			}
		}
	}
}
MOTION 
Frames:	18 
Frame Time: 0.02 
  -4.837239990234375 0.8579720306396484 9.187139892578125 -85.6097 77.3869 -253.938 11.0452 -13.9379 3.39148 1.82227 15.713 -3.83163 -4.30172 27.8453 21.6629 -81.6541 -73.5508 -53.8475 -105.8577 -16.7631 -0.587459 -29.2751 2.19293 -421.282 0.0 126.213 0.0 33.7905 -59.1448 305.584 0.0 0.0 0.0 0.0 0.0 0.0 105.6098 -10.8005 2.88485 29.06 -9.65582 -78.8501 0.0 78.325 0.0 -92.7899 57.5415 23.6228 0.0 0.0 0.0 0.0 0.0 0.0 11.1356 -19.1148 -4.29698 0.0 41.3663 0.0 -3.69937 -16.0044 5.08868 0.0 -11.88021 0.0 20.1126 0.192222 33.2062 0.0 3.64666 0.0 7.4274 4.7665005 -27.1758 0.0 -18.8778 0.0 
  -4.8354098510742185 0.8628919982910156 9.182379760742187 -86.2461 77.1731 -253.416 11.2704 -13.8973 3.59137 2.02281 15.8325 -3.74685 -4.85983 28.705 22.3238 -82.4105 -73.7032 -54.3885 -106.5067 -17.1028 -0.743955 -30.3758 0.772677 -421.935 0.0 125.705 0.0 31.9261 -60.7327 303.431 0.0 0.0 0.0 0.0 0.0 0.0 106.1906 -11.1118 2.96454 28.6621 -10.4926 -77.8022 0.0 78.6353 0.0 -93.6918 57.6524 24.5692 0.0 0.0 0.0 0.0 0.0 0.0 11.3285 -19.3957 -4.13305 0.0 41.5717 0.0 -3.71547 -16.194 5.06449 0.0 -11.84284 0.0 20.1942 0.0765818 33.2929 0.0 3.48556 0.0 7.5203 4.7728996 -27.0464 0.0 -18.86603 0.0 
  -4.833420104980469 0.8674610137939454 9.178319702148437 -86.2253 77.034 -253.437 11.5092 -13.8011 3.8162 2.06077 16.022 -3.69352 -5.60558 29.6642 23.2865 -82.9298 -73.9264 -54.8109 -106.736 -17.3128 -0.712314 -31.4387 -0.259686 -422.164 0.0 125.292 0.0 30.1239 -61.8152 300.898 0.0 0.0 0.0 0.0 0.0 0.0 106.5827 -11.4117 2.85665 28.4156 -10.9955 -76.6166 0.0 78.9023 0.0 -93.6702 58.4131 24.7502 0.0 0.0 0.0 0.0 0.0 0.0 11.4469 -19.5603 -4.0789 0.0 41.7836 0.0 -3.71863 -16.3229 5.04609 0.0 -11.8195305 0.0 20.2645 0.0729213 33.366 0.0 3.37059 0.0 7.6105 4.7417 -27.0442 0.0 -18.8337 0.0 
  -4.833080139160156 0.8720870208740235 9.17552001953125 -85.6192 76.9691 -253.892 11.6543 -13.6996 3.96258 2.09309 16.3721 -3.67769 -6.36286 30.4193 24.2464 -83.0694 -74.1065 -54.99 -106.7823 -17.4968 -0.536904 -32.1722 -0.770931 -421.706 0.0 125.061 0.0 30.4496 -62.1676 300.602 0.0 0.0 0.0 0.0 0.0 0.0 106.6397 -11.6198 2.89256 28.4146 -11.2167 -75.9044 0.0 79.038 0.0 -93.2104 59.1294 24.4766 0.0 0.0 0.0 0.0 0.0 0.0 11.4949 -19.6294 -4.15108 0.0 41.9815 0.0 -3.62157 -16.3573 5.06425 0.0 -11.82454 0.0 20.3425 0.133192 33.2575 0.0 3.35301 0.0 7.65209 4.7135 -27.0694 0.0 -18.87778 0.0 
  -4.834110107421875 0.8766580200195313 9.174769897460937 -84.5253 76.995 -254.698 11.6704 -13.5756 3.99842 2.09829 16.8097 -3.71922 -6.98509 31.0144 25.1733 -82.7783 -74.4177 -54.2732 -106.8772 -17.5208 -0.198244 -32.2237 -0.887741 -421.103 0.0 125.058 0.0 31.4934 -61.9547 301.562 0.0 0.0 0.0 0.0 0.0 0.0 106.5965 -11.683 3.00054 28.4168 -11.2199 -75.5112 0.0 79.093 0.0 -92.4604 59.9798 24.0134 0.0 0.0 0.0 0.0 0.0 0.0 11.4405 -19.5782 -4.38419 0.0 42.0997 0.0 -3.54429 -16.3003 5.07161 0.0 -11.8631 0.0 20.3915 0.264373 32.9769 0.0 3.39138 0.0 7.63546 4.6916 -27.112 0.0 -18.88617 0.0 
  -4.836449890136719 0.8815660095214843 9.175449829101563 -83.6989 77.0663 -255.163 11.6179 -13.5258 4.04011 2.01373 17.1592 -3.68634 -7.67194 31.5216 26.2366 -82.2632 -74.7517 -53.4623 -106.9265 -17.0824 -0.10261 -31.7824 -0.980188 -420.326 0.0 125.285 0.0 31.6461 -61.4542 302.517 0.0 0.0 0.0 0.0 0.0 0.0 106.6196 -11.6349 2.90787 28.3336 -11.0396 -75.2973 0.0 79.1457 0.0 -92.0731 60.3932 23.2983 0.0 0.0 0.0 0.0 0.0 0.0 11.3122 -19.5598 -4.69289 0.0 42.1239 0.0 -3.49279 -16.1729 5.05483 0.0 -11.8987 0.0 20.4039 0.30811 32.5844 0.0 3.47883 0.0 7.60998 4.6570997 -27.1183 0.0 -18.88578 0.0 
  -4.839450073242188 0.887605972290039 9.177670288085938 -82.9673 77.171 -255.538 11.4943 -13.4837 4.054 1.9586 17.4107 -3.6214 -8.7472 32.016 27.7911 -81.9697 -75.1082 -53.0154 -106.9134 -16.7239 0.288936 -31.2352 -0.183527 -419.632 0.0 125.603 0.0 30.6388 -60.3874 302.827 0.0 0.0 0.0 0.0 0.0 0.0 106.6529 -11.4466 2.80055 28.1272 -10.7202 -75.3291 0.0 79.1927 0.0 -91.7637 60.696 23.3028 0.0 0.0 0.0 0.0 0.0 0.0 11.1495 -19.511 -5.02577 0.0 42.0489 0.0 -3.49081 -16.0056 5.00436 0.0 -11.932671 0.0 20.3891 0.314181 32.1426 0.0 3.60306 0.0 7.55616 4.6523 -27.0892 0.0 -18.89908 0.0 
  -4.842239990234375 0.8931009674072266 9.180440063476562 -82.666 77.2738 -255.41 11.339 -13.5102 4.05977 1.92295 17.5439 -3.50652 -10.1274 32.359 29.6633 -81.6018 -75.412 -52.6341 -106.7685 -16.195 0.635719 -30.7355 0.857538 -418.769 0.0 126.066 0.0 29.3087 -59.3289 303.532 0.0 0.0 0.0 0.0 0.0 0.0 106.6892 -11.3125 2.63438 27.9023 -10.2785 -75.483 0.0 79.2024 0.0 -91.962 60.7329 22.9327 0.0 0.0 0.0 0.0 0.0 0.0 10.9372 -19.5554 -5.45529 0.0 41.929 0.0 -3.52949 -15.821699 4.93979 0.0 -11.94518 0.0 20.3388 0.249949 31.7005 0.0 3.66091 0.0 7.49049 4.6504 -27.1276 0.0 -18.87464 0.0 
  -4.844129943847657 0.8990699768066406 9.183590087890625 -82.4707 77.3527 -255.114 11.2371 -13.5556 4.08419 1.83513 17.5647 -3.40385 -11.6074 32.6372 31.6474 -80.8608 -75.7122 -51.9003 -106.6169 -15.6719 0.983539 -30.1695 2.29578 -417.733 0.0 126.551 0.0 26.4662 -58.6235 303.476 0.0 0.0 0.0 0.0 0.0 0.0 106.6836 -11.1379 2.41935 27.7533 -9.79726 -75.6575 0.0 79.128 0.0 -92.1421 60.8659 22.5803 0.0 0.0 0.0 0.0 0.0 0.0 10.7107 -19.6565 -5.95284 0.0 41.8185 0.0 -3.54339 -15.6189 4.89754 0.0 -11.95403 0.0 20.2832 0.173764 31.2382 0.0 3.65723 0.0 7.40567 4.6927996 -27.21 0.0 -18.87304 0.0 
  -4.84510009765625 0.9055870056152344 9.18594970703125 -82.3895 77.4018 -254.67 11.1629 -13.6123 4.14184 1.75706 17.4923 -3.27036 -13.087 32.8178 33.6032 -79.2041 -75.9801 -50.2132 -106.433395 -15.1592 1.29822 -29.6638 4.00841 -416.144 0.0 127.166 0.0 23.9381 -57.9854 305.915 0.0 0.0 0.0 0.0 0.0 0.0 106.5587 -11.0291 2.16771 27.777 -9.28841 -75.7993 0.0 78.982 0.0 -92.1638 60.9527 23.2016 0.0 0.0 0.0 0.0 0.0 0.0 10.4976 -19.8161 -6.46035 0.0 41.7408 0.0 -3.56987 -15.438299 4.81669 0.0 -11.96641 0.0 20.2304 0.0788059 30.807 0.0 3.61404 0.0 7.35712 4.7053003 -27.3265 0.0 -18.835411 0.0 
  -4.845039978027343 0.9130690002441406 9.187310180664063 -82.3472 77.4362 -254.162 11.1485 -13.605 4.23363 1.61762 17.249 -3.16633 -14.5559 32.9061 35.5793 -76.6744 -76.2186 -47.7932 -106.1561 -14.5449 1.32719 -29.4168 5.41057 -414.02 0.0 127.979 0.0 19.4313 -57.4999 308.887 0.0 0.0 0.0 0.0 0.0 0.0 106.4963 -11.0004 2.07133 27.7417 -8.8094 -76.1108 0.0 78.861 0.0 -92.4881 61.0059 22.6379 0.0 0.0 0.0 0.0 0.0 0.0 10.2555 -20.0039 -7.04258 0.0 41.6855 0.0 -3.55783 -15.281 4.81114 0.0 -11.9542 0.0 20.1779 -0.0314624 30.3846 0.0 3.56686 0.0 7.3321 4.6808996 -27.451 0.0 -18.80691 0.0 
  -4.84406005859375 0.9207969665527344 9.18864013671875 -82.1688 77.4627 -253.783 11.1322 -13.6093 4.3169 1.55253 17.0461 -3.0558 -16.0901 33.0567 37.664 -74.3502 -76.5106 -45.5388 -105.9499 -14.1112 1.37931 -29.1916 7.04274 -411.056 0.0 128.874 0.0 13.519 -57.1814 311.42 0.0 0.0 0.0 0.0 0.0 0.0 106.3538 -10.8138 1.96515 27.7723 -8.53084 -76.3518 0.0 78.6817 0.0 -92.2364 61.5737 23.4686 0.0 0.0 0.0 0.0 0.0 0.0 10.0411 -20.1678 -7.54941 0.0 41.6305 0.0 -3.5316 -15.1294 4.75782 0.0 -11.974649 0.0 20.1345 -0.122327 29.9106 0.0 3.53006 0.0 7.29817 4.6728 -27.541 0.0 -18.84269 0.0 
  -4.843290100097656 0.928760986328125 9.18989013671875 -81.8409 77.4978 -253.572 11.0941 -13.6177 4.38973 1.55774 16.9322 -2.93197 -17.5146 33.2461 39.5145 -72.4723 -76.7559 -43.6177 -105.717804 -13.5579 1.29737 -29.2628 8.26232 -407.472 0.0 129.765 0.0 3.72196 -55.5184 309.305 0.0 0.0 0.0 0.0 0.0 0.0 106.3019 -10.4198 1.92702 27.7023 -8.62564 -76.4355 0.0 78.6246 0.0 -92.5212 61.8205 23.6235 0.0 0.0 0.0 0.0 0.0 0.0 9.85484 -20.3006 -7.97947 0.0 41.5865 0.0 -3.52655 -14.979 4.6371 0.0 -11.97118 0.0 20.1045 -0.203185 29.4838 0.0 3.54893 0.0 7.30279 4.5999002 -27.641 0.0 -18.78622 0.0 
  -4.841319885253906 0.9365339660644532 9.191090087890625 -81.3764 77.55 -253.499 11.0028 -13.6101 4.40483 1.64648 16.8513 -2.83145 -19.2118 33.2967 41.7746 -70.8857 -77.0079 -42.5635 -105.4674 -12.8427 1.26786 -29.6488 8.95293 -403.527 0.0 130.73 0.0 -6.08505 -52.7711 307.878 0.0 0.0 0.0 0.0 0.0 0.0 106.2736 -10.3602 1.89364 27.579 -8.27326 -76.6671 0.0 78.536 0.0 -92.8705 62.0409 23.7966 0.0 0.0 0.0 0.0 0.0 0.0 9.65453 -20.3856 -8.42518 0.0 41.5329 0.0 -3.51717 -14.8323 4.50665 0.0 -11.97713 0.0 20.0661 -0.267672 29.0894 0.0 3.60543 0.0 7.34568 4.5010996 -27.7489 0.0 -18.78456 0.0 
  -4.8386099243164065 0.9447509765625 9.192470092773437 -80.7465 77.623 -253.616 10.9956 -13.5537 4.41074 1.57219 16.8638 -2.85362 -20.287 33.6696 43.2277 -70.4827 -77.4454 -41.6429 -105.1402 -12.2643 1.20329 -30.3855 9.36969 -399.976 0.0 131.66 0.0 -17.6788 -48.3264 303.93 0.0 0.0 0.0 0.0 0.0 0.0 106.360596 -10.3179 1.79554 27.4414 -7.71332 -76.9655 0.0 78.4165 0.0 -93.4143 62.1672 23.9912 0.0 0.0 0.0 0.0 0.0 0.0 9.4341 -20.4257 -8.89034 0.0 41.4886 0.0 -3.54949 -14.679701 4.37438 0.0 -11.96438 0.0 20.0201 -0.308796 28.7968 0.0 3.70459 0.0 7.41652 4.3786 -27.9119 0.0 -18.82243 0.0 
  -4.834549865722656 0.9529740142822266 9.193590087890625 -79.9022 77.7039 -253.983 10.9773 -13.5044 4.34451 1.58346 17.0496 -2.9441 -21.5307 33.6492 44.9075 -69.5503 -77.6842 -40.7952 -105.0845 -11.4323 1.70476 -30.9479 9.34616 -397.505 0.0 132.734 0.0 -25.4384 -44.9336 301.858 0.0 0.0 0.0 0.0 0.0 0.0 106.3808 -10.2552 1.80335 27.2509 -7.0933 -77.2455 0.0 78.3448 0.0 -93.3037 62.7391 24.1326 0.0 0.0 0.0 0.0 0.0 0.0 9.20802 -20.4028 -9.36067 0.0 41.4524 0.0 -3.56122 -14.5387 4.28844 0.0 -12.00072 0.0 19.9669 -0.273765 28.5623 0.0 3.76082 0.0 7.46882 4.2605 -28.1412 0.0 -18.83417 0.0 
  -4.830280151367187 0.9624929809570313 9.193909912109374 -78.9751 77.789 -254.573 11.057 -13.3934 4.34761 1.44059 17.3053 -3.07514 -22.3844 33.6334 46.2141 -68.5949 -77.9914 -39.6796 -105.2051 -10.6719 2.37504 -31.2466 9.23831 -395.325 0.0 134.467 0.0 -28.772 -46.2862 299.933 0.0 0.0 0.0 0.0 0.0 0.0 106.4796 -10.1231 1.71961 27.3217 -6.7851 -77.3158 0.0 78.1605 0.0 -94.4924 62.3442 24.9617 0.0 0.0 0.0 0.0 0.0 0.0 8.99742 -20.3246 -9.76174 0.0 41.4257 0.0 -3.59474 -14.4459 4.26108 0.0 -11.971 0.0 19.917 -0.224413 28.3624 0.0 3.86523 0.0 7.56042 4.1116 -28.2666 0.0 -18.8638 0.0 
  -4.8255398559570315 0.9702290344238281 9.194199829101562 -78.3087 77.8868 -255.002 11.1752 -13.3099 4.35751 1.14204 17.629 -3.24561 -22.8735 33.5833 47.1851 -67.8283 -78.3449 -38.6716 -105.3772 -10.1634 2.81674 -31.6798 8.83327 -393.258 0.0 136.697 0.0 -26.7099 -50.4803 303.962 0.0 0.0 0.0 0.0 0.0 0.0 106.7162 -9.94579 1.58989 27.2029 -6.39241 -77.2851 0.0 78.0809 0.0 -94.8232 62.6157 25.3085 0.0 0.0 0.0 0.0 0.0 0.0 8.79079 -20.2431 -10.0563 0.0 41.3751 0.0 -3.55774 -14.3442 4.30364 0.0 -12.00575 0.0 19.8315 -0.167155 28.2643 0.0 3.91657 0.0 7.62668 3.9737997 -28.4015 0.0 -18.85691 0.0 
